@startuml

class Devise{
    un_code: const char[4]
    une_zone: string
    monnaie: string
}
class Cotation{
    paire_devise:Paire_devise
    valeur: double
}
class Paire_devise{
    devise_base:devise
    devise_contrepartie:devise
    surnom: string
}

class CoursOHLCV{
    open_price: Cotation
    high_price: Cotation
    low_price: Cotation
    close_price: Cotation
    volume: double
}

class Bougie{
    forme: string
    couleur: Couleur
}

enum Couleur{
    Rouge
    Vert
}

class Graphique_chandelier{

}

class EvolutionCours{
}

class Graphique_barre{
}

Graphique_chandelier*-->Bougie:1,*

Bougie o-l->CoursOHLCV: 1:1

EvolutionCours*-->CoursOHLCV: *:*

Graphique_chandelier*-->EvolutionCours:1:*
EvolutionCours <-d-o Graphique_barre:*,1

Bougie o--> Couleur:1,*

Paire_devise o-r-> Devise: 1   :    2

Cotation o--> Paire_devise: 1\n:\n1

CoursOHLCV *--> Cotation:1:4
@enduml